<?xml version="1.0" encoding="UTF-8"?>
<!DOCTYPE svg PUBLIC "-//W3C//DTD SVG 1.1//EN" "http://www.w3.org/Graphics/SVG/1.1/DTD/svg11.dtd">
<svg xmlns="http://www.w3.org/2000/svg" version="1.1" width="225px" height="225px" style="shape-rendering:geometricPrecision; text-rendering:geometricPrecision; image-rendering:optimizeQuality; fill-rule:evenodd; clip-rule:evenodd" xmlns:xlink="http://www.w3.org/1999/xlink">
<g><path style="opacity:0.969" fill="#000000" d="M 21.5,13.5 C 26.8281,14.7718 32.1615,14.7718 37.5,13.5C 40.5789,13.8001 43.0789,15.1334 45,17.5C 50.1879,37.2556 55.5213,56.9223 61,76.5C 75.148,71.9971 86.9813,75.4971 96.5,87C 101.5,90.3333 106.5,90.3333 111.5,87C 128.458,69.0136 145.458,69.0136 162.5,87C 167.167,90.3333 171.833,90.3333 176.5,87C 181.454,81.3701 187.454,77.3701 194.5,75C 206.729,72.2193 210.729,76.5527 206.5,88C 202.5,89.3333 198.5,90.6667 194.5,92C 177.093,109.94 159.759,109.94 142.5,92C 138.219,88.9531 133.885,88.9531 129.5,92C 111.59,110.117 93.9235,109.783 76.5,91C 71.6901,89.117 67.3568,89.9503 63.5,93.5C 67.307,107.061 70.6403,120.728 73.5,134.5C 77.4102,134.263 81.0769,135.096 84.5,137C 89.4537,140.285 94.1203,143.952 98.5,148C 102.167,150 105.833,150 109.5,148C 126.943,129.212 144.61,128.879 162.5,147C 167.167,150.333 171.833,150.333 176.5,147C 183.546,137.544 192.879,133.544 204.5,135C 209.65,138.747 210.317,143.081 206.5,148C 202.575,149.584 198.575,150.917 194.5,152C 177.105,169.987 159.772,169.987 142.5,152C 134.292,148.287 127.625,150.287 122.5,158C 106.426,168.92 91.9255,167.087 79,152.5C 82.4196,169.017 86.2529,185.517 90.5,202C 89.9542,206.213 87.6209,208.88 83.5,210C 62.8333,210.667 42.1667,210.667 21.5,210C 18.5056,209.594 16.339,208.094 15,205.5C 14.3333,143.167 14.3333,80.8333 15,18.5C 16.5631,15.9771 18.7298,14.3104 21.5,13.5 Z"/></g>
</svg>
